<?xml version="1.0" encoding="UTF-8"?><svg id="Layer_2" xmlns="http://www.w3.org/2000/svg" viewBox="0 0 67.05 50.51"><g id="Layer_1-2"><g><path d="m20.21,33.5c-5.85,0-11.7,0-17.55,0-1.48,0-2.39-.7-2.61-1.95-.22-1.23.64-2.44,1.89-2.61.39-.05.8-.04,1.2-.04,11.19,0,22.39,0,33.58,0,.29,0,.58,0,.87,0,1.56-.06,2.56-1,2.54-2.39-.02-1.35-1-2.26-2.52-2.29-1.49-.03-2.98.02-4.47-.03-1.39-.05-2.31-1.08-2.24-2.41.06-1.13.9-2.1,2.08-2.14,1.89-.07,3.8-.16,5.66.05,3.7.42,6.31,3.58,6.12,7.13-.21,3.79-3.14,6.65-6.98,6.67-5.85.04-11.7.01-17.55.01Z"/><path d="m14.11,36.59c3.81,0,7.63-.07,11.44.02,4.82.11,8.02,4.77,6.44,9.25-.95,2.69-3.44,4.52-6.39,4.62-1.52.05-3.05.03-4.58,0-1.49-.03-2.51-.98-2.52-2.3-.01-1.31,1.01-2.28,2.5-2.31,1.38-.03,2.76,0,4.14-.01,1.58-.02,2.62-.94,2.65-2.29.03-1.38-1.06-2.38-2.67-2.38-7.52-.01-15.04,0-22.55,0-1.9,0-3.06-1.58-2.37-3.18.46-1.06,1.35-1.43,2.47-1.42,3.81.01,7.63,0,11.44,0h0Z"/><path d="m64.39,21.13c1.9-2.49,2.8-5.33,2.65-8.45-.26-5.59-3.86-10.29-9.07-12.01-5.19-1.71-10.76-.1-14.34,4.21-.45.54-.77.55-1.36.31-7.37-2.88-15.09.42-18.19,7.73-.15.36-.58.74-.95.84-5.02,1.35-8.36,4.48-10.11,9.35-.5,1.38.04,2.7,1.28,3.14,1.31.47,2.58-.22,3.06-1.65,1.32-3.92,4.1-6.03,8.16-6.53,1.51-.19,2.08-.64,2.48-2.14,1.17-4.38,4.77-7.22,9.1-7.17,4.36.05,7.9,2.94,8.99,7.33.46,1.87,1.33,2.36,3.26,2.11,1.1-.15,2.27-.2,3.35,0,4.72.88,8,5.14,7.58,9.71-.45,5-4.38,8.62-9.39,8.63-4.76,0-9.52,0-14.28,0-1.7,0-2.69.87-2.68,2.31.02,1.42,1.03,2.28,2.73,2.28,2.43,0,4.87,0,7.3,0,2.29,0,4.58,0,6.87,0,9.54,0,16.23-9.22,13.23-18.27-.24-.73-.11-1.18.33-1.75Zm-3.31-3.32c-2.25-2.29-4.88-3.73-7.99-4.23-.14-.02-.29-.09-.43-.07-1.99.37-3-.66-3.61-2.41-.19-.56-.64-1.05-1-1.55-.34-.47-.73-.9-1.09-1.34,2.12-3.56,7.44-4.67,11.28-2.39,4.11,2.45,5.42,7.75,2.84,11.98Z"/></g></g></svg>